<mxfile host="app.diagrams.net" modified="2024-07-02T21:12:23.917Z" agent="Mozilla/5.0 (Windows NT 10.0; Win64; x64) AppleWebKit/537.36 (KHTML, like Gecko) Chrome/126.0.0.0 Safari/537.36" etag="YL6n63tyT0ggAIuN6jOW" version="24.6.4" type="github" pages="4">
  <diagram name="Page-1" id="2YBvvXClWsGukQMizWep">
    <mxGraphModel dx="794" dy="462" grid="1" gridSize="10" guides="1" tooltips="1" connect="1" arrows="1" fold="1" page="1" pageScale="1" pageWidth="850" pageHeight="1100" math="0" shadow="0">
      <root>
        <mxCell id="0" />
        <mxCell id="1" parent="0" />
        <mxCell id="aM9ryv3xv72pqoxQDRHE-1" value=":Object" style="shape=umlLifeline;perimeter=lifelinePerimeter;whiteSpace=wrap;html=1;container=0;dropTarget=0;collapsible=0;recursiveResize=0;outlineConnect=0;portConstraint=eastwest;newEdgeStyle={&quot;edgeStyle&quot;:&quot;elbowEdgeStyle&quot;,&quot;elbow&quot;:&quot;vertical&quot;,&quot;curved&quot;:0,&quot;rounded&quot;:0};" parent="1" vertex="1">
          <mxGeometry x="40" y="40" width="100" height="420" as="geometry" />
        </mxCell>
        <mxCell id="aM9ryv3xv72pqoxQDRHE-2" value="" style="html=1;points=[];perimeter=orthogonalPerimeter;outlineConnect=0;targetShapes=umlLifeline;portConstraint=eastwest;newEdgeStyle={&quot;edgeStyle&quot;:&quot;elbowEdgeStyle&quot;,&quot;elbow&quot;:&quot;vertical&quot;,&quot;curved&quot;:0,&quot;rounded&quot;:0};" parent="aM9ryv3xv72pqoxQDRHE-1" vertex="1">
          <mxGeometry x="45" y="70" width="10" height="190" as="geometry" />
        </mxCell>
        <mxCell id="aM9ryv3xv72pqoxQDRHE-3" value="dispatch" style="html=1;verticalAlign=bottom;startArrow=oval;endArrow=block;startSize=8;edgeStyle=elbowEdgeStyle;elbow=vertical;curved=0;rounded=0;" parent="aM9ryv3xv72pqoxQDRHE-1" target="aM9ryv3xv72pqoxQDRHE-2" edge="1">
          <mxGeometry relative="1" as="geometry">
            <mxPoint x="-15" y="70" as="sourcePoint" />
          </mxGeometry>
        </mxCell>
        <mxCell id="aM9ryv3xv72pqoxQDRHE-4" value="" style="html=1;points=[];perimeter=orthogonalPerimeter;outlineConnect=0;targetShapes=umlLifeline;portConstraint=eastwest;newEdgeStyle={&quot;edgeStyle&quot;:&quot;elbowEdgeStyle&quot;,&quot;elbow&quot;:&quot;vertical&quot;,&quot;curved&quot;:0,&quot;rounded&quot;:0};" parent="aM9ryv3xv72pqoxQDRHE-1" vertex="1">
          <mxGeometry x="50" y="120" width="10" height="80" as="geometry" />
        </mxCell>
        <mxCell id="0wCxGA9cMqmeyCH2hNFd-6" value="" style="html=1;points=[[0,0,0,0,5],[0,1,0,0,-5],[1,0,0,0,5],[1,1,0,0,-5]];perimeter=orthogonalPerimeter;outlineConnect=0;targetShapes=umlLifeline;portConstraint=eastwest;newEdgeStyle={&quot;curved&quot;:0,&quot;rounded&quot;:0};" vertex="1" parent="aM9ryv3xv72pqoxQDRHE-1">
          <mxGeometry x="45" y="290" width="10" height="80" as="geometry" />
        </mxCell>
        <mxCell id="aM9ryv3xv72pqoxQDRHE-5" value=":Object" style="shape=umlLifeline;perimeter=lifelinePerimeter;whiteSpace=wrap;html=1;container=0;dropTarget=0;collapsible=0;recursiveResize=0;outlineConnect=0;portConstraint=eastwest;newEdgeStyle={&quot;edgeStyle&quot;:&quot;elbowEdgeStyle&quot;,&quot;elbow&quot;:&quot;vertical&quot;,&quot;curved&quot;:0,&quot;rounded&quot;:0};" parent="1" vertex="1">
          <mxGeometry x="220" y="40" width="100" height="360" as="geometry" />
        </mxCell>
        <mxCell id="aM9ryv3xv72pqoxQDRHE-6" value="" style="html=1;points=[];perimeter=orthogonalPerimeter;outlineConnect=0;targetShapes=umlLifeline;portConstraint=eastwest;newEdgeStyle={&quot;edgeStyle&quot;:&quot;elbowEdgeStyle&quot;,&quot;elbow&quot;:&quot;vertical&quot;,&quot;curved&quot;:0,&quot;rounded&quot;:0};" parent="aM9ryv3xv72pqoxQDRHE-5" vertex="1">
          <mxGeometry x="45" y="80" width="10" height="170" as="geometry" />
        </mxCell>
        <mxCell id="0wCxGA9cMqmeyCH2hNFd-2" value="" style="html=1;points=[[0,0,0,0,5],[0,1,0,0,-5],[1,0,0,0,5],[1,1,0,0,-5]];perimeter=orthogonalPerimeter;outlineConnect=0;targetShapes=umlLifeline;portConstraint=eastwest;newEdgeStyle={&quot;curved&quot;:0,&quot;rounded&quot;:0};" vertex="1" parent="aM9ryv3xv72pqoxQDRHE-5">
          <mxGeometry x="45" y="280" width="10" height="80" as="geometry" />
        </mxCell>
        <mxCell id="0wCxGA9cMqmeyCH2hNFd-3" value="dispatch" style="html=1;verticalAlign=bottom;endArrow=block;curved=0;rounded=0;entryX=0;entryY=0;entryDx=0;entryDy=5;fontSize=12;startSize=8;endSize=8;" edge="1" target="0wCxGA9cMqmeyCH2hNFd-2" parent="aM9ryv3xv72pqoxQDRHE-5">
          <mxGeometry relative="1" as="geometry">
            <mxPoint x="-25" y="285" as="sourcePoint" />
          </mxGeometry>
        </mxCell>
        <mxCell id="aM9ryv3xv72pqoxQDRHE-7" value="dispatch" style="html=1;verticalAlign=bottom;endArrow=block;edgeStyle=elbowEdgeStyle;elbow=vertical;curved=0;rounded=0;" parent="1" source="aM9ryv3xv72pqoxQDRHE-2" target="aM9ryv3xv72pqoxQDRHE-6" edge="1">
          <mxGeometry relative="1" as="geometry">
            <mxPoint x="195" y="130" as="sourcePoint" />
            <Array as="points">
              <mxPoint x="180" y="120" />
            </Array>
          </mxGeometry>
        </mxCell>
        <mxCell id="aM9ryv3xv72pqoxQDRHE-8" value="return" style="html=1;verticalAlign=bottom;endArrow=open;dashed=1;endSize=8;edgeStyle=elbowEdgeStyle;elbow=vertical;curved=0;rounded=0;" parent="1" source="aM9ryv3xv72pqoxQDRHE-6" target="aM9ryv3xv72pqoxQDRHE-2" edge="1">
          <mxGeometry relative="1" as="geometry">
            <mxPoint x="195" y="205" as="targetPoint" />
            <Array as="points">
              <mxPoint x="190" y="280" />
            </Array>
          </mxGeometry>
        </mxCell>
        <mxCell id="aM9ryv3xv72pqoxQDRHE-9" value="callback" style="html=1;verticalAlign=bottom;endArrow=block;edgeStyle=elbowEdgeStyle;elbow=vertical;curved=0;rounded=0;" parent="1" source="aM9ryv3xv72pqoxQDRHE-6" target="aM9ryv3xv72pqoxQDRHE-4" edge="1">
          <mxGeometry relative="1" as="geometry">
            <mxPoint x="175" y="160" as="sourcePoint" />
            <Array as="points">
              <mxPoint x="190" y="160" />
            </Array>
          </mxGeometry>
        </mxCell>
        <mxCell id="aM9ryv3xv72pqoxQDRHE-10" value="return" style="html=1;verticalAlign=bottom;endArrow=open;dashed=1;endSize=8;edgeStyle=elbowEdgeStyle;elbow=vertical;curved=0;rounded=0;" parent="1" source="aM9ryv3xv72pqoxQDRHE-4" target="aM9ryv3xv72pqoxQDRHE-6" edge="1">
          <mxGeometry relative="1" as="geometry">
            <mxPoint x="175" y="235" as="targetPoint" />
            <Array as="points">
              <mxPoint x="180" y="230" />
            </Array>
          </mxGeometry>
        </mxCell>
        <mxCell id="0wCxGA9cMqmeyCH2hNFd-4" value="return" style="html=1;verticalAlign=bottom;endArrow=open;dashed=1;endSize=8;curved=0;rounded=0;exitX=0;exitY=1;exitDx=0;exitDy=-5;fontSize=12;" edge="1" source="0wCxGA9cMqmeyCH2hNFd-2" parent="1" target="0wCxGA9cMqmeyCH2hNFd-6">
          <mxGeometry relative="1" as="geometry">
            <mxPoint x="220" y="395" as="targetPoint" />
          </mxGeometry>
        </mxCell>
      </root>
    </mxGraphModel>
  </diagram>
  <diagram id="sPWUCgie8WC5kbJ_RhPH" name="Landing page">
    <mxGraphModel dx="1334" dy="944" grid="0" gridSize="10" guides="1" tooltips="1" connect="1" arrows="1" fold="1" page="0" pageScale="1" pageWidth="827" pageHeight="1169" math="0" shadow="0">
      <root>
        <mxCell id="0" />
        <mxCell id="1" parent="0" />
        <mxCell id="EF0LKtEeuK6IbxuPvSOw-4" value="" style="shape=umlLifeline;perimeter=lifelinePerimeter;whiteSpace=wrap;html=1;container=1;dropTarget=0;collapsible=0;recursiveResize=0;outlineConnect=0;portConstraint=eastwest;newEdgeStyle={&quot;curved&quot;:0,&quot;rounded&quot;:0};participant=umlActor;" vertex="1" parent="1">
          <mxGeometry y="-365" width="20" height="74" as="geometry" />
        </mxCell>
        <mxCell id="EF0LKtEeuK6IbxuPvSOw-5" value="" style="html=1;points=[[0,0,0,0,5],[0,1,0,0,-5],[1,0,0,0,5],[1,1,0,0,-5]];perimeter=orthogonalPerimeter;outlineConnect=0;targetShapes=umlLifeline;portConstraint=eastwest;newEdgeStyle={&quot;curved&quot;:0,&quot;rounded&quot;:0};" vertex="1" parent="1">
          <mxGeometry x="5" y="-291" width="10" height="524" as="geometry" />
        </mxCell>
        <mxCell id="EF0LKtEeuK6IbxuPvSOw-8" value="System" style="shape=umlLifeline;perimeter=lifelinePerimeter;whiteSpace=wrap;html=1;container=1;dropTarget=0;collapsible=0;recursiveResize=0;outlineConnect=0;portConstraint=eastwest;newEdgeStyle={&quot;curved&quot;:0,&quot;rounded&quot;:0};" vertex="1" parent="1">
          <mxGeometry x="170" y="-365" width="100" height="73" as="geometry" />
        </mxCell>
        <mxCell id="EF0LKtEeuK6IbxuPvSOw-9" value="Database" style="shape=umlLifeline;perimeter=lifelinePerimeter;whiteSpace=wrap;html=1;container=1;dropTarget=0;collapsible=0;recursiveResize=0;outlineConnect=0;portConstraint=eastwest;newEdgeStyle={&quot;curved&quot;:0,&quot;rounded&quot;:0};" vertex="1" parent="1">
          <mxGeometry x="366" y="-365" width="100" height="601" as="geometry" />
        </mxCell>
        <mxCell id="EF0LKtEeuK6IbxuPvSOw-13" value="" style="html=1;points=[[0,0,0,0,5],[0,1,0,0,-5],[1,0,0,0,5],[1,1,0,0,-5]];perimeter=orthogonalPerimeter;outlineConnect=0;targetShapes=umlLifeline;portConstraint=eastwest;newEdgeStyle={&quot;curved&quot;:0,&quot;rounded&quot;:0};" vertex="1" parent="EF0LKtEeuK6IbxuPvSOw-9">
          <mxGeometry x="45" y="73" width="10" height="524" as="geometry" />
        </mxCell>
        <mxCell id="EF0LKtEeuK6IbxuPvSOw-12" value="" style="html=1;points=[[0,0,0,0,5],[0,1,0,0,-5],[1,0,0,0,5],[1,1,0,0,-5]];perimeter=orthogonalPerimeter;outlineConnect=0;targetShapes=umlLifeline;portConstraint=eastwest;newEdgeStyle={&quot;curved&quot;:0,&quot;rounded&quot;:0};" vertex="1" parent="1">
          <mxGeometry x="215" y="-291" width="10" height="526" as="geometry" />
        </mxCell>
        <mxCell id="EF0LKtEeuK6IbxuPvSOw-15" value="buka halaman web" style="html=1;verticalAlign=bottom;endArrow=block;curved=0;rounded=0;fontSize=12;startSize=8;endSize=8;entryX=0;entryY=0;entryDx=0;entryDy=5;entryPerimeter=0;" edge="1" parent="1" source="EF0LKtEeuK6IbxuPvSOw-5" target="EF0LKtEeuK6IbxuPvSOw-12">
          <mxGeometry width="80" relative="1" as="geometry">
            <mxPoint x="23" y="-280" as="sourcePoint" />
            <mxPoint x="103" y="-280" as="targetPoint" />
          </mxGeometry>
        </mxCell>
        <mxCell id="EF0LKtEeuK6IbxuPvSOw-17" value="return" style="html=1;verticalAlign=bottom;endArrow=open;dashed=1;endSize=8;curved=0;rounded=0;fontSize=12;" edge="1" parent="1" target="EF0LKtEeuK6IbxuPvSOw-5">
          <mxGeometry relative="1" as="geometry">
            <mxPoint x="211" y="-251" as="sourcePoint" />
            <mxPoint x="104" y="-192" as="targetPoint" />
          </mxGeometry>
        </mxCell>
        <mxCell id="EF0LKtEeuK6IbxuPvSOw-18" value="Lihat peta" style="html=1;verticalAlign=bottom;endArrow=block;curved=0;rounded=0;fontSize=12;startSize=8;endSize=8;" edge="1" parent="1" source="EF0LKtEeuK6IbxuPvSOw-5">
          <mxGeometry width="80" relative="1" as="geometry">
            <mxPoint x="18" y="-218" as="sourcePoint" />
            <mxPoint x="213" y="-184" as="targetPoint" />
          </mxGeometry>
        </mxCell>
        <mxCell id="EF0LKtEeuK6IbxuPvSOw-19" value="Mencari data" style="html=1;verticalAlign=bottom;endArrow=block;curved=0;rounded=0;fontSize=12;startSize=8;endSize=8;" edge="1" parent="1" target="EF0LKtEeuK6IbxuPvSOw-13">
          <mxGeometry width="80" relative="1" as="geometry">
            <mxPoint x="227" y="-146" as="sourcePoint" />
            <mxPoint x="404" y="-159" as="targetPoint" />
          </mxGeometry>
        </mxCell>
        <mxCell id="EF0LKtEeuK6IbxuPvSOw-20" value="return" style="html=1;verticalAlign=bottom;endArrow=open;dashed=1;endSize=8;curved=0;rounded=0;fontSize=12;" edge="1" parent="1">
          <mxGeometry relative="1" as="geometry">
            <mxPoint x="407" y="-90" as="sourcePoint" />
            <mxPoint x="225" y="-90" as="targetPoint" />
          </mxGeometry>
        </mxCell>
        <mxCell id="EF0LKtEeuK6IbxuPvSOw-21" value="Menampilkan data peta&amp;nbsp;" style="html=1;verticalAlign=bottom;endArrow=open;dashed=1;endSize=8;curved=0;rounded=0;fontSize=12;" edge="1" parent="1">
          <mxGeometry relative="1" as="geometry">
            <mxPoint x="211" y="-51" as="sourcePoint" />
            <mxPoint x="15" y="-51" as="targetPoint" />
          </mxGeometry>
        </mxCell>
        <mxCell id="EF0LKtEeuK6IbxuPvSOw-22" value="Lihat detail umkm" style="html=1;verticalAlign=bottom;endArrow=block;curved=0;rounded=0;fontSize=12;startSize=8;endSize=8;" edge="1" parent="1">
          <mxGeometry width="80" relative="1" as="geometry">
            <mxPoint x="15" y="6" as="sourcePoint" />
            <mxPoint x="213" y="6" as="targetPoint" />
          </mxGeometry>
        </mxCell>
        <mxCell id="EF0LKtEeuK6IbxuPvSOw-23" value="Mencari data detail umkm" style="html=1;verticalAlign=bottom;endArrow=block;curved=0;rounded=0;fontSize=12;startSize=8;endSize=8;" edge="1" parent="1">
          <mxGeometry width="80" relative="1" as="geometry">
            <mxPoint x="225" y="36" as="sourcePoint" />
            <mxPoint x="409" y="36" as="targetPoint" />
          </mxGeometry>
        </mxCell>
        <mxCell id="EF0LKtEeuK6IbxuPvSOw-24" value="return" style="html=1;verticalAlign=bottom;endArrow=open;dashed=1;endSize=8;curved=0;rounded=0;fontSize=12;" edge="1" parent="1">
          <mxGeometry relative="1" as="geometry">
            <mxPoint x="407" y="93" as="sourcePoint" />
            <mxPoint x="225" y="93" as="targetPoint" />
          </mxGeometry>
        </mxCell>
        <mxCell id="EF0LKtEeuK6IbxuPvSOw-25" value="Menampilkan data detail umkm" style="html=1;verticalAlign=bottom;endArrow=open;dashed=1;endSize=8;curved=0;rounded=0;fontSize=12;" edge="1" parent="1">
          <mxGeometry relative="1" as="geometry">
            <mxPoint x="216" y="142" as="sourcePoint" />
            <mxPoint x="20" y="142" as="targetPoint" />
          </mxGeometry>
        </mxCell>
        <mxCell id="EF0LKtEeuK6IbxuPvSOw-26" value="User" style="text;html=1;align=center;verticalAlign=middle;whiteSpace=wrap;rounded=0;fontSize=16;" vertex="1" parent="1">
          <mxGeometry x="-20" y="-329" width="60" height="30" as="geometry" />
        </mxCell>
      </root>
    </mxGraphModel>
  </diagram>
  <diagram id="y-tAbvuzWUYLHigbUb8F" name="Login Register">
    <mxGraphModel grid="0" page="0" gridSize="10" guides="1" tooltips="1" connect="1" arrows="1" fold="1" pageScale="1" pageWidth="827" pageHeight="1169" math="0" shadow="0">
      <root>
        <mxCell id="0" />
        <mxCell id="1" parent="0" />
        <mxCell id="Me7JLIsY1jJ5hIMaFBg7-1" value="" style="shape=umlLifeline;perimeter=lifelinePerimeter;whiteSpace=wrap;html=1;container=1;dropTarget=0;collapsible=0;recursiveResize=0;outlineConnect=0;portConstraint=eastwest;newEdgeStyle={&quot;curved&quot;:0,&quot;rounded&quot;:0};participant=umlActor;" parent="1" vertex="1">
          <mxGeometry x="-74" y="53" width="20" height="223" as="geometry" />
        </mxCell>
        <mxCell id="Me7JLIsY1jJ5hIMaFBg7-4" value="" style="html=1;points=[[0,0,0,0,5],[0,1,0,0,-5],[1,0,0,0,5],[1,1,0,0,-5]];perimeter=orthogonalPerimeter;outlineConnect=0;targetShapes=umlLifeline;portConstraint=eastwest;newEdgeStyle={&quot;curved&quot;:0,&quot;rounded&quot;:0};" parent="Me7JLIsY1jJ5hIMaFBg7-1" vertex="1">
          <mxGeometry x="5" y="143" width="10" height="80" as="geometry" />
        </mxCell>
        <mxCell id="Me7JLIsY1jJ5hIMaFBg7-2" value="System" style="shape=umlLifeline;perimeter=lifelinePerimeter;whiteSpace=wrap;html=1;container=1;dropTarget=0;collapsible=0;recursiveResize=0;outlineConnect=0;portConstraint=eastwest;newEdgeStyle={&quot;curved&quot;:0,&quot;rounded&quot;:0};" parent="1" vertex="1">
          <mxGeometry x="115" y="52.5" width="100" height="151" as="geometry" />
        </mxCell>
        <mxCell id="Me7JLIsY1jJ5hIMaFBg7-3" value="Database" style="shape=umlLifeline;perimeter=lifelinePerimeter;whiteSpace=wrap;html=1;container=1;dropTarget=0;collapsible=0;recursiveResize=0;outlineConnect=0;portConstraint=eastwest;newEdgeStyle={&quot;curved&quot;:0,&quot;rounded&quot;:0};" parent="1" vertex="1">
          <mxGeometry x="361" y="52" width="100" height="151" as="geometry" />
        </mxCell>
        <mxCell id="Me7JLIsY1jJ5hIMaFBg7-9" value="" style="endArrow=none;dashed=1;html=1;rounded=0;fontSize=12;startSize=8;endSize=8;curved=1;" parent="1" edge="1">
          <mxGeometry width="50" height="50" relative="1" as="geometry">
            <mxPoint x="-64.16" y="276" as="sourcePoint" />
            <mxPoint x="-64.16" y="319" as="targetPoint" />
          </mxGeometry>
        </mxCell>
        <mxCell id="Me7JLIsY1jJ5hIMaFBg7-10" value="&lt;span style=&quot;color: rgba(0, 0, 0, 0); font-family: monospace; font-size: 0px; text-align: start;&quot;&gt;%3CmxGraphModel%3E%3Croot%3E%3CmxCell%20id%3D%220%22%2F%3E%3CmxCell%20id%3D%221%22%20parent%3D%220%22%2F%3E%3CmxCell%20id%3D%222%22%20value%3D%22%22%20style%3D%22endArrow%3Dnone%3Bdashed%3D1%3Bhtml%3D1%3Brounded%3D0%3BfontSize%3D12%3BstartSize%3D8%3BendSize%3D8%3Bcurved%3D1%3B%22%20edge%3D%221%22%20parent%3D%221%22%3E%3CmxGeometry%20width%3D%2250%22%20height%3D%2250%22%20relative%3D%221%22%20as%3D%22geometry%22%3E%3CmxPoint%20x%3D%22-64.16%22%20y%3D%22276%22%20as%3D%22sourcePoint%22%2F%3E%3CmxPoint%20x%3D%22-64.16%22%20y%3D%22319%22%20as%3D%22targetPoint%22%2F%3E%3C%2FmxGeometry%3E%3C%2FmxCell%3E%3C%2Froot%3E%3C%2FmxGraphModel%3E&lt;/span&gt;" style="html=1;points=[[0,0,0,0,5],[0,1,0,0,-5],[1,0,0,0,5],[1,1,0,0,-5]];perimeter=orthogonalPerimeter;outlineConnect=0;targetShapes=umlLifeline;portConstraint=eastwest;newEdgeStyle={&quot;curved&quot;:0,&quot;rounded&quot;:0};" parent="1" vertex="1">
          <mxGeometry x="160" y="200" width="10" height="84" as="geometry" />
        </mxCell>
        <mxCell id="Me7JLIsY1jJ5hIMaFBg7-11" value="" style="html=1;points=[[0,0,0,0,5],[0,1,0,0,-5],[1,0,0,0,5],[1,1,0,0,-5]];perimeter=orthogonalPerimeter;outlineConnect=0;targetShapes=umlLifeline;portConstraint=eastwest;newEdgeStyle={&quot;curved&quot;:0,&quot;rounded&quot;:0};" parent="1" vertex="1">
          <mxGeometry x="406" y="199" width="10" height="202" as="geometry" />
        </mxCell>
        <mxCell id="Me7JLIsY1jJ5hIMaFBg7-12" value="Login" style="html=1;verticalAlign=bottom;endArrow=block;curved=0;rounded=0;fontSize=12;startSize=8;endSize=8;entryX=0;entryY=0.19;entryDx=0;entryDy=0;entryPerimeter=0;exitX=0.725;exitY=0.726;exitDx=0;exitDy=0;exitPerimeter=0;" parent="1" source="Me7JLIsY1jJ5hIMaFBg7-1" target="Me7JLIsY1jJ5hIMaFBg7-10" edge="1">
          <mxGeometry width="80" relative="1" as="geometry">
            <mxPoint x="-57" y="207" as="sourcePoint" />
            <mxPoint x="23" y="207" as="targetPoint" />
          </mxGeometry>
        </mxCell>
        <mxCell id="Me7JLIsY1jJ5hIMaFBg7-13" value="Chek user" style="html=1;verticalAlign=bottom;endArrow=block;curved=0;rounded=0;fontSize=12;startSize=8;endSize=8;" parent="1" source="Me7JLIsY1jJ5hIMaFBg7-10" edge="1">
          <mxGeometry width="80" relative="1" as="geometry">
            <mxPoint x="174" y="238.41" as="sourcePoint" />
            <mxPoint x="403" y="239" as="targetPoint" />
          </mxGeometry>
        </mxCell>
        <mxCell id="Me7JLIsY1jJ5hIMaFBg7-15" value="" style="endArrow=none;dashed=1;html=1;rounded=0;fontSize=12;startSize=8;endSize=8;curved=1;" parent="1" edge="1">
          <mxGeometry width="50" height="50" relative="1" as="geometry">
            <mxPoint x="164.58" y="284" as="sourcePoint" />
            <mxPoint x="164.58" y="327" as="targetPoint" />
          </mxGeometry>
        </mxCell>
        <mxCell id="Me7JLIsY1jJ5hIMaFBg7-16" value="" style="html=1;points=[[0,0,0,0,5],[0,1,0,0,-5],[1,0,0,0,5],[1,1,0,0,-5]];perimeter=orthogonalPerimeter;outlineConnect=0;targetShapes=umlLifeline;portConstraint=eastwest;newEdgeStyle={&quot;curved&quot;:0,&quot;rounded&quot;:0};" parent="1" vertex="1">
          <mxGeometry x="160" y="319" width="10" height="80" as="geometry" />
        </mxCell>
        <mxCell id="Me7JLIsY1jJ5hIMaFBg7-17" value="Valid" style="html=1;verticalAlign=bottom;endArrow=open;dashed=1;endSize=8;curved=0;rounded=0;fontSize=12;entryX=1;entryY=0;entryDx=0;entryDy=5;entryPerimeter=0;" parent="1" source="Me7JLIsY1jJ5hIMaFBg7-11" target="Me7JLIsY1jJ5hIMaFBg7-16" edge="1">
          <mxGeometry relative="1" as="geometry">
            <mxPoint x="403" y="337" as="sourcePoint" />
            <mxPoint x="323" y="337" as="targetPoint" />
          </mxGeometry>
        </mxCell>
        <mxCell id="Me7JLIsY1jJ5hIMaFBg7-18" value="Invalid" style="html=1;verticalAlign=bottom;endArrow=open;dashed=1;endSize=8;curved=0;rounded=0;fontSize=12;entryX=1;entryY=0.75;entryDx=0;entryDy=0;entryPerimeter=0;" parent="1" target="Me7JLIsY1jJ5hIMaFBg7-16" edge="1">
          <mxGeometry relative="1" as="geometry">
            <mxPoint x="406" y="379" as="sourcePoint" />
            <mxPoint x="174" y="379" as="targetPoint" />
          </mxGeometry>
        </mxCell>
        <mxCell id="Me7JLIsY1jJ5hIMaFBg7-19" value="" style="html=1;points=[[0,0,0,0,5],[0,1,0,0,-5],[1,0,0,0,5],[1,1,0,0,-5]];perimeter=orthogonalPerimeter;outlineConnect=0;targetShapes=umlLifeline;portConstraint=eastwest;newEdgeStyle={&quot;curved&quot;:0,&quot;rounded&quot;:0};" parent="1" vertex="1">
          <mxGeometry x="-69" y="321" width="10" height="80" as="geometry" />
        </mxCell>
        <mxCell id="Me7JLIsY1jJ5hIMaFBg7-21" value="Login berhasil" style="html=1;verticalAlign=bottom;endArrow=open;dashed=1;endSize=8;curved=0;rounded=0;fontSize=12;entryX=1;entryY=0;entryDx=0;entryDy=5;entryPerimeter=0;" parent="1" edge="1">
          <mxGeometry x="0.0014" relative="1" as="geometry">
            <mxPoint x="160" y="340" as="sourcePoint" />
            <mxPoint x="-59" y="340" as="targetPoint" />
            <mxPoint as="offset" />
          </mxGeometry>
        </mxCell>
        <mxCell id="Me7JLIsY1jJ5hIMaFBg7-22" value="Login gagal" style="html=1;verticalAlign=bottom;endArrow=open;dashed=1;endSize=8;curved=0;rounded=0;fontSize=12;entryX=1;entryY=0;entryDx=0;entryDy=5;entryPerimeter=0;" parent="1" edge="1">
          <mxGeometry x="0.0014" relative="1" as="geometry">
            <mxPoint x="160" y="395" as="sourcePoint" />
            <mxPoint x="-59" y="395" as="targetPoint" />
            <mxPoint as="offset" />
          </mxGeometry>
        </mxCell>
        <mxCell id="Me7JLIsY1jJ5hIMaFBg7-23" value="" style="endArrow=none;dashed=1;html=1;rounded=0;fontSize=12;startSize=8;endSize=8;curved=1;" parent="1" edge="1">
          <mxGeometry width="50" height="50" relative="1" as="geometry">
            <mxPoint x="-64.42" y="401" as="sourcePoint" />
            <mxPoint x="-64.42" y="444" as="targetPoint" />
          </mxGeometry>
        </mxCell>
        <mxCell id="Me7JLIsY1jJ5hIMaFBg7-24" value="" style="endArrow=none;dashed=1;html=1;rounded=0;fontSize=12;startSize=8;endSize=8;curved=1;" parent="1" edge="1">
          <mxGeometry width="50" height="50" relative="1" as="geometry">
            <mxPoint x="164.57999999999998" y="399" as="sourcePoint" />
            <mxPoint x="164.57999999999998" y="442" as="targetPoint" />
          </mxGeometry>
        </mxCell>
        <mxCell id="Me7JLIsY1jJ5hIMaFBg7-25" value="" style="endArrow=none;dashed=1;html=1;rounded=0;fontSize=12;startSize=8;endSize=8;curved=1;" parent="1" edge="1">
          <mxGeometry width="50" height="50" relative="1" as="geometry">
            <mxPoint x="410.58" y="401" as="sourcePoint" />
            <mxPoint x="410.58" y="444" as="targetPoint" />
          </mxGeometry>
        </mxCell>
        <mxCell id="Me7JLIsY1jJ5hIMaFBg7-26" value="" style="html=1;points=[[0,0,0,0,5],[0,1,0,0,-5],[1,0,0,0,5],[1,1,0,0,-5]];perimeter=orthogonalPerimeter;outlineConnect=0;targetShapes=umlLifeline;portConstraint=eastwest;newEdgeStyle={&quot;curved&quot;:0,&quot;rounded&quot;:0};" parent="1" vertex="1">
          <mxGeometry x="-69" y="446" width="10" height="80" as="geometry" />
        </mxCell>
        <mxCell id="Me7JLIsY1jJ5hIMaFBg7-27" value="" style="html=1;points=[[0,0,0,0,5],[0,1,0,0,-5],[1,0,0,0,5],[1,1,0,0,-5]];perimeter=orthogonalPerimeter;outlineConnect=0;targetShapes=umlLifeline;portConstraint=eastwest;newEdgeStyle={&quot;curved&quot;:0,&quot;rounded&quot;:0};" parent="1" vertex="1">
          <mxGeometry x="160" y="446" width="10" height="80" as="geometry" />
        </mxCell>
        <mxCell id="Me7JLIsY1jJ5hIMaFBg7-28" value="" style="html=1;points=[[0,0,0,0,5],[0,1,0,0,-5],[1,0,0,0,5],[1,1,0,0,-5]];perimeter=orthogonalPerimeter;outlineConnect=0;targetShapes=umlLifeline;portConstraint=eastwest;newEdgeStyle={&quot;curved&quot;:0,&quot;rounded&quot;:0};" parent="1" vertex="1">
          <mxGeometry x="406" y="446" width="10" height="80" as="geometry" />
        </mxCell>
        <mxCell id="Me7JLIsY1jJ5hIMaFBg7-29" value="Regtister" style="html=1;verticalAlign=bottom;endArrow=block;curved=0;rounded=0;fontSize=12;startSize=8;endSize=8;entryX=0;entryY=0.19;entryDx=0;entryDy=0;entryPerimeter=0;exitX=0.725;exitY=0.726;exitDx=0;exitDy=0;exitPerimeter=0;" parent="1" edge="1">
          <mxGeometry width="80" relative="1" as="geometry">
            <mxPoint x="-59" y="454" as="sourcePoint" />
            <mxPoint x="160" y="455" as="targetPoint" />
          </mxGeometry>
        </mxCell>
        <mxCell id="Me7JLIsY1jJ5hIMaFBg7-30" value="Simpan" style="html=1;verticalAlign=bottom;endArrow=block;curved=0;rounded=0;fontSize=12;startSize=8;endSize=8;" parent="1" edge="1">
          <mxGeometry width="80" relative="1" as="geometry">
            <mxPoint x="173" y="475" as="sourcePoint" />
            <mxPoint x="406" y="475" as="targetPoint" />
          </mxGeometry>
        </mxCell>
        <mxCell id="Me7JLIsY1jJ5hIMaFBg7-31" value="valid" style="html=1;verticalAlign=bottom;endArrow=open;dashed=1;endSize=8;curved=0;rounded=0;fontSize=12;entryX=1;entryY=0.75;entryDx=0;entryDy=0;entryPerimeter=0;" parent="1" edge="1">
          <mxGeometry relative="1" as="geometry">
            <mxPoint x="406" y="506" as="sourcePoint" />
            <mxPoint x="170" y="506" as="targetPoint" />
          </mxGeometry>
        </mxCell>
        <mxCell id="Me7JLIsY1jJ5hIMaFBg7-32" value="halaman Dashboard" style="html=1;verticalAlign=bottom;endArrow=open;dashed=1;endSize=8;curved=0;rounded=0;fontSize=12;entryX=1;entryY=0;entryDx=0;entryDy=5;entryPerimeter=0;" parent="1" edge="1">
          <mxGeometry x="0.0014" relative="1" as="geometry">
            <mxPoint x="160" y="523" as="sourcePoint" />
            <mxPoint x="-59" y="523" as="targetPoint" />
            <mxPoint as="offset" />
          </mxGeometry>
        </mxCell>
        <mxCell id="Me7JLIsY1jJ5hIMaFBg7-33" value="" style="endArrow=none;dashed=1;html=1;rounded=0;fontSize=12;startSize=8;endSize=8;curved=1;" parent="1" edge="1">
          <mxGeometry width="50" height="50" relative="1" as="geometry">
            <mxPoint x="-64.42" y="526" as="sourcePoint" />
            <mxPoint x="-64" y="549" as="targetPoint" />
          </mxGeometry>
        </mxCell>
        <mxCell id="Me7JLIsY1jJ5hIMaFBg7-34" value="" style="endArrow=none;dashed=1;html=1;rounded=0;fontSize=12;startSize=8;endSize=8;curved=1;" parent="1" edge="1">
          <mxGeometry width="50" height="50" relative="1" as="geometry">
            <mxPoint x="164.57999999999998" y="526" as="sourcePoint" />
            <mxPoint x="165" y="549" as="targetPoint" />
          </mxGeometry>
        </mxCell>
        <mxCell id="Me7JLIsY1jJ5hIMaFBg7-35" value="" style="endArrow=none;dashed=1;html=1;rounded=0;fontSize=12;startSize=8;endSize=8;curved=1;" parent="1" edge="1">
          <mxGeometry width="50" height="50" relative="1" as="geometry">
            <mxPoint x="410.58" y="528" as="sourcePoint" />
            <mxPoint x="411" y="551" as="targetPoint" />
          </mxGeometry>
        </mxCell>
        <mxCell id="aDvMHFVVtFslKlyHn3Tn-2" value="User" style="text;html=1;align=center;verticalAlign=middle;resizable=0;points=[];autosize=1;strokeColor=none;fillColor=none;fontSize=16;" vertex="1" parent="1">
          <mxGeometry x="-95" y="112.5" width="52" height="31" as="geometry" />
        </mxCell>
      </root>
    </mxGraphModel>
  </diagram>
  <diagram id="qPPrlCTVvPCPeglbDHnX" name="Center Point">
    <mxGraphModel dx="854" dy="264" grid="0" gridSize="10" guides="1" tooltips="1" connect="1" arrows="1" fold="1" page="0" pageScale="1" pageWidth="827" pageHeight="1169" math="0" shadow="0">
      <root>
        <mxCell id="0" />
        <mxCell id="1" parent="0" />
        <mxCell id="r1aBjmi0Clw_CfbHowpB-1" value="" style="shape=umlLifeline;perimeter=lifelinePerimeter;whiteSpace=wrap;html=1;container=1;dropTarget=0;collapsible=0;recursiveResize=0;outlineConnect=0;portConstraint=eastwest;newEdgeStyle={&quot;curved&quot;:0,&quot;rounded&quot;:0};participant=umlActor;" vertex="1" parent="1">
          <mxGeometry x="-71" y="52.5" width="20" height="70.5" as="geometry" />
        </mxCell>
        <mxCell id="r1aBjmi0Clw_CfbHowpB-3" value="System" style="shape=umlLifeline;perimeter=lifelinePerimeter;whiteSpace=wrap;html=1;container=1;dropTarget=0;collapsible=0;recursiveResize=0;outlineConnect=0;portConstraint=eastwest;newEdgeStyle={&quot;curved&quot;:0,&quot;rounded&quot;:0};" vertex="1" parent="1">
          <mxGeometry x="115" y="52.5" width="100" height="68.5" as="geometry" />
        </mxCell>
        <mxCell id="r1aBjmi0Clw_CfbHowpB-4" value="Database" style="shape=umlLifeline;perimeter=lifelinePerimeter;whiteSpace=wrap;html=1;container=1;dropTarget=0;collapsible=0;recursiveResize=0;outlineConnect=0;portConstraint=eastwest;newEdgeStyle={&quot;curved&quot;:0,&quot;rounded&quot;:0};" vertex="1" parent="1">
          <mxGeometry x="361" y="52" width="100" height="70" as="geometry" />
        </mxCell>
        <mxCell id="r1aBjmi0Clw_CfbHowpB-2" value="" style="html=1;points=[[0,0,0,0,5],[0,1,0,0,-5],[1,0,0,0,5],[1,1,0,0,-5]];perimeter=orthogonalPerimeter;outlineConnect=0;targetShapes=umlLifeline;portConstraint=eastwest;newEdgeStyle={&quot;curved&quot;:0,&quot;rounded&quot;:0};" vertex="1" parent="1">
          <mxGeometry x="-66" y="123" width="10" height="124" as="geometry" />
        </mxCell>
        <mxCell id="VGkt6wchPl6ECwU7rgHM-1" value="User" style="text;html=1;align=center;verticalAlign=middle;whiteSpace=wrap;rounded=0;fontSize=16;" vertex="1" parent="1">
          <mxGeometry x="-111" y="93" width="60" height="30" as="geometry" />
        </mxCell>
        <mxCell id="VGkt6wchPl6ECwU7rgHM-2" value="" style="html=1;points=[[0,0,0,0,5],[0,1,0,0,-5],[1,0,0,0,5],[1,1,0,0,-5]];perimeter=orthogonalPerimeter;outlineConnect=0;targetShapes=umlLifeline;portConstraint=eastwest;newEdgeStyle={&quot;curved&quot;:0,&quot;rounded&quot;:0};" vertex="1" parent="1">
          <mxGeometry x="160" y="121" width="10" height="134" as="geometry" />
        </mxCell>
        <mxCell id="VGkt6wchPl6ECwU7rgHM-3" value="" style="html=1;points=[[0,0,0,0,5],[0,1,0,0,-5],[1,0,0,0,5],[1,1,0,0,-5]];perimeter=orthogonalPerimeter;outlineConnect=0;targetShapes=umlLifeline;portConstraint=eastwest;newEdgeStyle={&quot;curved&quot;:0,&quot;rounded&quot;:0};" vertex="1" parent="1">
          <mxGeometry x="406" y="119" width="10" height="136" as="geometry" />
        </mxCell>
        <mxCell id="pVNr0oau-Pk0-2kPRTYr-1" value="Memilih menu Center Point" style="html=1;verticalAlign=bottom;endArrow=block;curved=0;rounded=0;fontSize=12;startSize=8;endSize=8;" edge="1" parent="1" target="VGkt6wchPl6ECwU7rgHM-2">
          <mxGeometry width="80" relative="1" as="geometry">
            <mxPoint x="-55" y="142" as="sourcePoint" />
            <mxPoint x="25" y="142" as="targetPoint" />
          </mxGeometry>
        </mxCell>
        <mxCell id="pVNr0oau-Pk0-2kPRTYr-2" value="Get Data Ceter point" style="html=1;verticalAlign=bottom;endArrow=block;curved=0;rounded=0;fontSize=12;startSize=8;endSize=8;" edge="1" parent="1" target="VGkt6wchPl6ECwU7rgHM-3">
          <mxGeometry width="80" relative="1" as="geometry">
            <mxPoint x="171" y="163" as="sourcePoint" />
            <mxPoint x="251" y="163" as="targetPoint" />
            <mxPoint as="offset" />
          </mxGeometry>
        </mxCell>
        <mxCell id="pVNr0oau-Pk0-2kPRTYr-3" value="Mengirim data center point" style="html=1;verticalAlign=bottom;endArrow=open;dashed=1;endSize=8;curved=0;rounded=0;fontSize=12;" edge="1" parent="1">
          <mxGeometry relative="1" as="geometry">
            <mxPoint x="404" y="216" as="sourcePoint" />
            <mxPoint x="175" y="216" as="targetPoint" />
          </mxGeometry>
        </mxCell>
        <mxCell id="pVNr0oau-Pk0-2kPRTYr-4" value="" style="endArrow=none;dashed=1;html=1;rounded=0;fontSize=12;startSize=8;endSize=8;curved=1;" edge="1" parent="1" target="pVNr0oau-Pk0-2kPRTYr-9">
          <mxGeometry width="50" height="50" relative="1" as="geometry">
            <mxPoint x="-61.499999999999886" y="247" as="sourcePoint" />
            <mxPoint x="-61.5" y="299" as="targetPoint" />
          </mxGeometry>
        </mxCell>
        <mxCell id="pVNr0oau-Pk0-2kPRTYr-6" value="Menampilkan data center point" style="html=1;verticalAlign=bottom;endArrow=open;dashed=1;endSize=8;curved=0;rounded=0;fontSize=12;" edge="1" parent="1" target="r1aBjmi0Clw_CfbHowpB-2">
          <mxGeometry relative="1" as="geometry">
            <mxPoint x="158" y="233" as="sourcePoint" />
            <mxPoint x="78" y="233" as="targetPoint" />
          </mxGeometry>
        </mxCell>
        <mxCell id="pVNr0oau-Pk0-2kPRTYr-7" value="" style="endArrow=none;dashed=1;html=1;rounded=0;fontSize=12;startSize=8;endSize=8;curved=1;" edge="1" parent="1" target="pVNr0oau-Pk0-2kPRTYr-12">
          <mxGeometry width="50" height="50" relative="1" as="geometry">
            <mxPoint x="164.5000000000001" y="255" as="sourcePoint" />
            <mxPoint x="164.5" y="307" as="targetPoint" />
          </mxGeometry>
        </mxCell>
        <mxCell id="pVNr0oau-Pk0-2kPRTYr-8" value="" style="endArrow=none;dashed=1;html=1;rounded=0;fontSize=12;startSize=8;endSize=8;curved=1;" edge="1" parent="1" target="pVNr0oau-Pk0-2kPRTYr-13">
          <mxGeometry width="50" height="50" relative="1" as="geometry">
            <mxPoint x="410.5000000000001" y="255" as="sourcePoint" />
            <mxPoint x="410.5" y="307" as="targetPoint" />
          </mxGeometry>
        </mxCell>
        <mxCell id="pVNr0oau-Pk0-2kPRTYr-9" value="" style="html=1;points=[[0,0,0,0,5],[0,1,0,0,-5],[1,0,0,0,5],[1,1,0,0,-5]];perimeter=orthogonalPerimeter;outlineConnect=0;targetShapes=umlLifeline;portConstraint=eastwest;newEdgeStyle={&quot;curved&quot;:0,&quot;rounded&quot;:0};" vertex="1" parent="1">
          <mxGeometry x="-66.5" y="259" width="10" height="188" as="geometry" />
        </mxCell>
        <mxCell id="pVNr0oau-Pk0-2kPRTYr-12" value="" style="html=1;points=[[0,0,0,0,5],[0,1,0,0,-5],[1,0,0,0,5],[1,1,0,0,-5]];perimeter=orthogonalPerimeter;outlineConnect=0;targetShapes=umlLifeline;portConstraint=eastwest;newEdgeStyle={&quot;curved&quot;:0,&quot;rounded&quot;:0};" vertex="1" parent="1">
          <mxGeometry x="159.5" y="267" width="10" height="182" as="geometry" />
        </mxCell>
        <mxCell id="pVNr0oau-Pk0-2kPRTYr-13" value="" style="html=1;points=[[0,0,0,0,5],[0,1,0,0,-5],[1,0,0,0,5],[1,1,0,0,-5]];perimeter=orthogonalPerimeter;outlineConnect=0;targetShapes=umlLifeline;portConstraint=eastwest;newEdgeStyle={&quot;curved&quot;:0,&quot;rounded&quot;:0};" vertex="1" parent="1">
          <mxGeometry x="406" y="344" width="10" height="105" as="geometry" />
        </mxCell>
        <mxCell id="pVNr0oau-Pk0-2kPRTYr-14" value="Tekan tambah data" style="html=1;verticalAlign=bottom;endArrow=block;curved=0;rounded=0;fontSize=12;startSize=8;endSize=8;" edge="1" parent="1">
          <mxGeometry width="80" relative="1" as="geometry">
            <mxPoint x="-56.5" y="273" as="sourcePoint" />
            <mxPoint x="158.5" y="273" as="targetPoint" />
          </mxGeometry>
        </mxCell>
        <mxCell id="pVNr0oau-Pk0-2kPRTYr-15" value="Menampilkan form tambah" style="html=1;verticalAlign=bottom;endArrow=open;dashed=1;endSize=8;curved=0;rounded=0;fontSize=12;" edge="1" parent="1">
          <mxGeometry relative="1" as="geometry">
            <mxPoint x="157.5" y="306.58" as="sourcePoint" />
            <mxPoint x="-56.5" y="306.58" as="targetPoint" />
          </mxGeometry>
        </mxCell>
        <mxCell id="pVNr0oau-Pk0-2kPRTYr-16" value="Menambahkan Center Point" style="html=1;verticalAlign=bottom;endArrow=block;curved=0;rounded=0;fontSize=12;startSize=8;endSize=8;" edge="1" parent="1">
          <mxGeometry width="80" relative="1" as="geometry">
            <mxPoint x="-55" y="349" as="sourcePoint" />
            <mxPoint x="160" y="349" as="targetPoint" />
          </mxGeometry>
        </mxCell>
        <mxCell id="pVNr0oau-Pk0-2kPRTYr-19" value="Menggirim Data centerpoint" style="html=1;verticalAlign=bottom;endArrow=block;curved=0;rounded=0;fontSize=12;startSize=8;endSize=8;" edge="1" parent="1">
          <mxGeometry width="80" relative="1" as="geometry">
            <mxPoint x="171" y="364" as="sourcePoint" />
            <mxPoint x="406" y="364" as="targetPoint" />
            <mxPoint as="offset" />
          </mxGeometry>
        </mxCell>
        <mxCell id="pVNr0oau-Pk0-2kPRTYr-20" value="" style="html=1;points=[[0,0,0,0,5],[0,1,0,0,-5],[1,0,0,0,5],[1,1,0,0,-5]];perimeter=orthogonalPerimeter;outlineConnect=0;targetShapes=umlLifeline;portConstraint=eastwest;newEdgeStyle={&quot;curved&quot;:0,&quot;rounded&quot;:0};" vertex="1" parent="1">
          <mxGeometry x="411" y="384" width="10" height="40" as="geometry" />
        </mxCell>
        <mxCell id="pVNr0oau-Pk0-2kPRTYr-21" value="Create()" style="html=1;align=left;spacingLeft=2;endArrow=block;rounded=0;edgeStyle=orthogonalEdgeStyle;curved=0;rounded=0;fontSize=12;startSize=8;endSize=8;" edge="1" target="pVNr0oau-Pk0-2kPRTYr-20" parent="1">
          <mxGeometry relative="1" as="geometry">
            <mxPoint x="416" y="364" as="sourcePoint" />
            <Array as="points">
              <mxPoint x="446" y="394" />
            </Array>
          </mxGeometry>
        </mxCell>
        <mxCell id="pVNr0oau-Pk0-2kPRTYr-22" value="Memperbarui data center point" style="html=1;verticalAlign=bottom;endArrow=open;dashed=1;endSize=8;curved=0;rounded=0;fontSize=12;" edge="1" parent="1">
          <mxGeometry relative="1" as="geometry">
            <mxPoint x="401" y="415" as="sourcePoint" />
            <mxPoint x="172" y="415" as="targetPoint" />
          </mxGeometry>
        </mxCell>
        <mxCell id="pVNr0oau-Pk0-2kPRTYr-24" value="Menampilkan data center point" style="html=1;verticalAlign=bottom;endArrow=open;dashed=1;endSize=8;curved=0;rounded=0;fontSize=12;" edge="1" parent="1">
          <mxGeometry relative="1" as="geometry">
            <mxPoint x="158" y="436" as="sourcePoint" />
            <mxPoint x="-56" y="436" as="targetPoint" />
          </mxGeometry>
        </mxCell>
        <mxCell id="pVNr0oau-Pk0-2kPRTYr-25" value="" style="endArrow=none;dashed=1;html=1;rounded=0;fontSize=12;startSize=8;endSize=8;curved=1;entryX=0.55;entryY=1;entryDx=0;entryDy=0;entryPerimeter=0;" edge="1" parent="1" target="pVNr0oau-Pk0-2kPRTYr-9">
          <mxGeometry width="50" height="50" relative="1" as="geometry">
            <mxPoint x="-61" y="515" as="sourcePoint" />
            <mxPoint x="-40" y="491" as="targetPoint" />
          </mxGeometry>
        </mxCell>
        <mxCell id="pVNr0oau-Pk0-2kPRTYr-26" value="" style="endArrow=none;dashed=1;html=1;rounded=0;fontSize=12;startSize=8;endSize=8;curved=1;entryX=0.55;entryY=1;entryDx=0;entryDy=0;entryPerimeter=0;" edge="1" parent="1">
          <mxGeometry width="50" height="50" relative="1" as="geometry">
            <mxPoint x="164.71" y="517" as="sourcePoint" />
            <mxPoint x="164.71" y="449" as="targetPoint" />
          </mxGeometry>
        </mxCell>
        <mxCell id="pVNr0oau-Pk0-2kPRTYr-27" value="" style="endArrow=none;dashed=1;html=1;rounded=0;fontSize=12;startSize=8;endSize=8;curved=1;entryX=0.55;entryY=1;entryDx=0;entryDy=0;entryPerimeter=0;" edge="1" parent="1">
          <mxGeometry width="50" height="50" relative="1" as="geometry">
            <mxPoint x="411" y="517" as="sourcePoint" />
            <mxPoint x="411" y="449" as="targetPoint" />
          </mxGeometry>
        </mxCell>
      </root>
    </mxGraphModel>
  </diagram>
</mxfile>
